<svg width="31" height="31" viewBox="0 0 31 31" fill="none" xmlns="http://www.w3.org/2000/svg">
<path d="M15.5 0C6.9395 0 0 6.9395 0 15.5C0 24.0605 6.9395 31 15.5 31C24.0605 31 31 24.0605 31 15.5C31 6.9395 24.0605 0 15.5 0ZM15.5 26.9004C9.20432 26.9004 4.09957 21.7957 4.09957 15.5C4.09957 9.20432 9.20432 4.09957 15.5 4.09957C21.7957 4.09957 26.9004 9.20432 26.9004 15.5C26.9004 21.7957 21.7957 26.9004 15.5 26.9004Z" fill="black" fill-opacity="0.58"/>
<path d="M15.4999 18.2153C17.1386 18.2153 18.467 16.8869 18.467 15.2482C18.467 13.6095 17.1386 12.281 15.4999 12.281C13.8612 12.281 12.5327 13.6095 12.5327 15.2482C12.5327 16.8869 13.8612 18.2153 15.4999 18.2153Z" fill="black" fill-opacity="0.58"/>
<path d="M16.592 16.1541H14.4111V30.2977H16.592V16.1541Z" fill="black" fill-opacity="0.58"/>
<path d="M3.25058 7.19239L2.16016 9.08105L14.4089 16.1529L15.4993 14.2642L3.25058 7.19239Z" fill="black" fill-opacity="0.58"/>
<path d="M15.5009 14.265L16.5913 16.1537L28.8401 9.08186L27.7497 7.1932L15.5009 14.265Z" fill="black" fill-opacity="0.58"/>
</svg>
